<?xml version="1.0" standalone="no"?>
<!DOCTYPE svg PUBLIC "-//W3C//DTD SVG 20010904//EN"
 "http://www.w3.org/TR/2001/REC-SVG-20010904/DTD/svg10.dtd">
<svg version="1.0" xmlns="http://www.w3.org/2000/svg"
 width="3056.000000pt" height="3056.000000pt" viewBox="0 0 3056.000000 3056.000000"
 preserveAspectRatio="xMidYMid meet">

<g transform="translate(0.000000,3056.000000) scale(0.100000,-0.100000)"
fill="#000000" stroke="none">
<path d="M9349 15741 c-25 -4 -58 -17 -73 -29 -16 -12 -36 -22 -45 -22 -9 0
-31 -10 -50 -23 -19 -12 -43 -27 -55 -34 -26 -16 -126 -104 -196 -173 -77 -77
-208 -190 -220 -190 -8 0 -38 -25 -92 -78 -69 -67 -118 -137 -134 -189 -8 -26
-22 -55 -31 -65 -10 -11 -20 -47 -25 -85 -5 -43 -16 -79 -32 -102 -16 -25 -26
-57 -30 -101 -4 -41 -13 -75 -26 -92 -11 -14 -24 -57 -30 -95 -7 -41 -19 -76
-31 -89 -10 -11 -24 -47 -30 -80 -6 -33 -20 -69 -31 -81 -12 -13 -25 -45 -29
-75 -5 -29 -18 -65 -30 -81 -14 -19 -24 -54 -30 -101 -6 -46 -17 -81 -30 -100
-15 -19 -24 -53 -30 -104 -8 -74 -30 -119 -52 -105 -5 3 -7 2 -4 -4 13 -21
-12 -177 -33 -206 -14 -18 -24 -53 -29 -102 -6 -49 -17 -87 -32 -112 -22 -36
-24 -50 -30 -249 -5 -197 -7 -214 -29 -255 -23 -43 -24 -52 -30 -349 -5 -279
-7 -308 -25 -337 -14 -24 -22 -29 -28 -20 -6 8 -7 4 -4 -10 3 -12 1 -67 -3
-122 -6 -76 -13 -109 -30 -136 -17 -27 -23 -58 -29 -140 -6 -86 -12 -111 -30
-136 -19 -25 -24 -50 -30 -134 -5 -72 -13 -111 -25 -130 -10 -15 -22 -41 -27
-57 -12 -44 -13 -1387 0 -1418 8 -22 10 -22 11 -5 1 15 6 11 17 -15 11 -25 17
-92 23 -235 4 -110 5 -203 3 -207 -2 -5 1 -16 7 -25 9 -15 10 -14 5 7 l-7 25
17 -23 c9 -12 21 -36 25 -53 5 -17 10 -331 11 -697 1 -371 5 -676 10 -687 9
-18 9 -18 5 3 -6 31 1 28 20 -10 17 -32 36 -198 23 -198 -4 0 -2 -19 4 -42 8
-30 12 -37 17 -24 5 15 8 14 19 -11 14 -28 33 -341 24 -373 -4 -11 -3 -12 4
-2 17 23 45 -59 54 -160 6 -74 13 -104 29 -126 15 -20 23 -53 30 -120 8 -70
15 -100 32 -123 19 -25 23 -45 25 -120 2 -96 6 -111 27 -103 19 7 36 -48 34
-112 -1 -55 9 -85 22 -64 6 9 11 7 19 -7 17 -34 30 -102 19 -105 -6 -2 -2 -10
8 -18 16 -13 17 -13 9 0 -5 9 0 8 13 -4 23 -20 44 -79 36 -101 -3 -7 0 -16 7
-21 8 -5 10 -3 4 6 -5 8 -3 11 6 8 8 -2 22 -22 33 -44 10 -21 30 -52 43 -68
14 -17 22 -37 20 -48 -3 -11 2 -22 14 -28 10 -6 19 -8 19 -4 0 3 7 1 15 -6 9
-7 14 -19 11 -26 -5 -14 17 -37 27 -27 9 8 48 -27 42 -37 -3 -4 3 -14 12 -21
12 -10 14 -10 9 -1 -11 18 5 14 34 -8 17 -13 20 -20 10 -20 -10 -1 -4 -10 15
-25 32 -27 51 -33 39 -12 -4 6 2 4 14 -7 12 -10 19 -22 17 -26 -6 -10 24 -35
32 -27 10 11 44 -14 41 -30 -2 -12 7 -19 28 -23 42 -9 56 -19 50 -36 -6 -17
39 -38 62 -29 17 6 54 -23 46 -36 -7 -13 36 -31 59 -25 26 7 60 -12 53 -30 -6
-17 21 -33 45 -27 24 7 77 -26 60 -37 -8 -4 7 -15 38 -28 30 -12 51 -16 51
-10 0 7 5 6 15 -2 8 -7 12 -16 9 -21 -7 -12 39 -29 87 -32 40 -3 54 -11 54
-30 0 -7 14 -15 30 -18 17 -4 2321 -6 5120 -5 l5090 1 -4792 2 c-2636 2 -4793
6 -4793 11 0 4 2161 8 4803 10 2641 1 4809 5 4817 9 8 3 22 7 30 9 58 12 113
33 132 51 13 11 34 24 48 28 14 4 41 17 60 30 19 13 51 26 70 30 19 4 46 17
60 30 14 12 39 27 55 32 17 5 30 16 30 24 0 8 7 14 15 14 31 1 90 34 84 48 -3
8 2 20 11 27 10 9 15 9 15 1 0 -8 10 -6 30 4 16 8 29 19 27 23 -1 4 0 7 3 8
22 5 89 46 93 59 4 8 18 20 32 27 14 6 25 19 25 29 0 21 18 35 40 31 16 -3
114 76 138 110 8 11 15 27 16 36 2 9 8 17 15 17 16 0 42 35 35 47 -8 13 15 38
30 32 17 -6 48 69 39 92 -5 13 -2 16 10 11 25 -9 35 18 40 108 3 44 6 82 6 84
1 2 8 1 16 -3 8 -3 19 2 24 12 12 23 20 132 10 132 -5 0 -3 11 3 25 6 14 17
24 24 21 18 -7 24 5 35 76 6 40 19 71 34 90 14 16 25 40 25 53 0 13 12 37 26
55 14 17 30 49 36 72 5 23 20 52 33 64 14 13 26 36 26 51 1 15 2 37 3 48 1 12
8 20 19 20 10 0 22 6 26 13 4 8 9 89 9 180 1 92 6 192 11 222 l9 55 2 -60 2
-60 14 85 c8 47 16 154 19 238 5 148 17 211 35 182 29 -47 30 109 28 2712 -2
2058 -6 2647 -15 2663 -9 14 -12 16 -13 5 0 -9 -6 -5 -17 10 -16 22 -18 51
-18 215 -1 120 -5 199 -12 215 -10 22 -12 23 -13 5 -1 -14 -7 -9 -21 20 -13
29 -18 59 -17 105 1 36 -3 74 -10 85 -8 14 -12 16 -12 5 0 -11 -7 -8 -21 9
-16 19 -19 33 -14 62 7 43 -8 81 -29 73 -8 -3 -19 3 -26 15 -7 14 -7 21 0 21
6 0 8 10 6 23 -3 12 -7 39 -11 59 -4 28 -12 39 -33 46 -15 6 -21 11 -14 11 9
1 10 6 2 20 -5 11 -11 37 -11 58 l-2 38 -7 -40 -7 -40 -2 36 c0 20 -10 48 -21
62 -22 27 -26 42 -10 32 7 -4 7 3 0 20 -6 15 -10 41 -10 58 -1 31 -29 96 -30
67 0 -11 -3 -11 -12 -2 -6 6 -13 39 -15 72 -3 69 -17 102 -37 94 -8 -3 -19 3
-26 15 -6 12 -7 21 -2 21 11 0 3 61 -10 77 -5 6 -16 9 -23 7 -15 -6 -35 24
-28 42 6 17 -16 66 -27 59 -12 -8 -44 41 -35 55 8 13 -13 42 -25 35 -11 -7
-33 22 -25 34 10 17 -23 71 -39 65 -15 -6 -43 33 -32 43 9 10 -14 32 -28 27
-14 -6 -42 23 -33 33 10 10 -13 32 -27 27 -14 -6 -42 23 -33 33 10 10 -13 32
-27 27 -14 -6 -42 23 -33 33 11 10 -13 32 -28 27 -12 -5 -32 19 -34 40 0 6 -8
11 -16 12 -24 4 -46 25 -43 42 2 9 -6 16 -21 19 -32 5 -53 23 -47 40 3 8 1 11
-4 8 -5 -3 -30 3 -55 14 -33 14 -45 25 -43 38 2 13 -5 18 -31 20 -43 4 -89 32
-71 43 14 9 -18 22 -58 25 -25 1 -44 23 -35 39 3 5 2 6 -4 3 -14 -9 -84 13
-108 33 -35 29 -45 32 -143 40 -97 8 -185 36 -160 51 6 4 -166 7 -383 6 l-394
-2 -50 -25 -50 -25 -1905 0 -1905 0 -44 22 c-34 16 -39 22 -25 26 30 7 -5286
5 -5337 -2z"/>
<path d="M7845 7120 c3 -5 8 -10 11 -10 2 0 4 5 4 10 0 6 -5 10 -11 10 -5 0
-7 -4 -4 -10z"/>
</g>
</svg>
